<svg width="1104" height="864" viewBox="0 0 1104 864" fill="none" xmlns="http://www.w3.org/2000/svg">
<rect width="1104" height="864" fill="#F2F2F2"/>
<rect width="1104" height="864" fill="#C4C4C4"/>
<g opacity="0.67" filter="url(#filter0_d)">
<ellipse cx="426.239" cy="358.788" rx="125.239" ry="134.388" fill="white"/>
</g>
<g opacity="0.67" filter="url(#filter1_d)">
<ellipse cx="565.93" cy="475.086" rx="90.3169" ry="96.9144" fill="#AA8094"/>
</g>
<g opacity="0.67" filter="url(#filter2_d)">
<ellipse cx="629.753" cy="256.705" rx="184.246" ry="197.705" fill="#00000E" style="mix-blend-mode:darken"/>
</g>
<path d="M658.348 555.176L659.25 550.266H656.883L656.977 548.168H659.637L660.281 544.477H657.797L657.891 542.379H660.656L661.594 537.914H663.879L662.988 542.379H665.25L666.117 537.914H668.344L667.465 542.379H669.586L669.445 544.465H667.078L666.375 548.168H668.66L668.543 550.266H666.023L665.086 555.176H662.789L663.715 550.266H661.488L660.562 555.176H658.348ZM661.863 548.168H664.137L664.852 544.465H662.59L661.863 548.168ZM670.195 555L676.512 537.82H679.969L686.191 555H682.934L681.234 550.148H675.223L673.512 555H670.195ZM676.02 547.781H680.426C679.02 543.273 678.297 540.945 678.258 540.797L676.02 547.781ZM686.133 555L692.449 537.82H695.906L702.129 555H698.871L697.172 550.148H691.16L689.449 555H686.133ZM691.957 547.781H696.363C694.957 543.273 694.234 540.945 694.195 540.797L691.957 547.781ZM708.879 555.246C707.762 555.246 706.754 555.07 705.855 554.719C704.965 554.359 704.242 553.812 703.688 553.078C703.133 552.336 702.855 551.457 702.855 550.441C702.855 548.387 703.867 546.91 705.891 546.012C704.086 545.152 703.184 543.809 703.184 541.98C703.184 541.262 703.332 540.617 703.629 540.047C703.926 539.477 704.332 539.012 704.848 538.652C705.371 538.285 705.973 538.008 706.652 537.82C707.34 537.633 708.082 537.539 708.879 537.539C710.535 537.539 711.895 537.926 712.957 538.699C714.027 539.473 714.562 540.566 714.562 541.98C714.562 543.785 713.727 545.129 712.055 546.012C713.938 546.926 714.879 548.406 714.879 550.453C714.879 551.469 714.602 552.348 714.047 553.09C713.5 553.824 712.777 554.367 711.879 554.719C710.988 555.07 709.988 555.246 708.879 555.246ZM706.559 552.398C707.121 552.875 707.895 553.113 708.879 553.113C709.863 553.113 710.633 552.875 711.188 552.398C711.742 551.922 712.02 551.25 712.02 550.383C712.02 549.523 711.73 548.812 711.152 548.25C710.574 547.688 709.816 547.285 708.879 547.043C707.918 547.285 707.148 547.688 706.57 548.25C706 548.812 705.715 549.527 705.715 550.395C705.715 551.254 705.996 551.922 706.559 552.398ZM708.879 545.215C709.84 544.996 710.578 544.617 711.094 544.078C711.609 543.531 711.867 542.836 711.867 541.992C711.867 541.289 711.586 540.723 711.023 540.293C710.461 539.863 709.746 539.648 708.879 539.648C708.02 539.648 707.305 539.863 706.734 540.293C706.164 540.723 705.879 541.289 705.879 541.992C705.879 542.836 706.145 543.531 706.676 544.078C707.207 544.625 707.941 545.004 708.879 545.215ZM721.605 552.27C722.051 552.629 722.586 552.809 723.211 552.809C723.836 552.809 724.367 552.629 724.805 552.27C725.25 551.91 725.586 551.414 725.812 550.781C726.047 550.141 726.215 549.461 726.316 548.742C726.418 548.016 726.469 547.211 726.469 546.328C726.469 542.094 725.383 539.977 723.211 539.977C721.055 539.977 719.961 542.078 719.93 546.281C719.93 547.172 719.98 547.98 720.082 548.707C720.184 549.434 720.352 550.121 720.586 550.77C720.82 551.41 721.16 551.91 721.605 552.27ZM725.707 554.777C724.973 555.09 724.141 555.246 723.211 555.246C722.281 555.246 721.445 555.09 720.703 554.777C719.961 554.457 719.348 554.027 718.863 553.488C718.379 552.941 717.973 552.289 717.645 551.531C717.324 550.773 717.094 549.973 716.953 549.129C716.82 548.285 716.754 547.383 716.754 546.422C716.754 545.445 716.824 544.531 716.965 543.68C717.105 542.82 717.34 542.012 717.668 541.254C717.996 540.488 718.402 539.836 718.887 539.297C719.379 538.758 719.992 538.332 720.727 538.02C721.461 537.699 722.289 537.539 723.211 537.539C724.133 537.539 724.961 537.699 725.695 538.02C726.43 538.332 727.039 538.762 727.523 539.309C728.008 539.848 728.41 540.5 728.73 541.266C729.059 542.023 729.293 542.828 729.434 543.68C729.574 544.531 729.645 545.445 729.645 546.422C729.645 547.383 729.574 548.285 729.434 549.129C729.301 549.973 729.074 550.777 728.754 551.543C728.434 552.301 728.031 552.949 727.547 553.488C727.062 554.027 726.449 554.457 725.707 554.777ZM733.641 555L738.844 548.227C738.32 548.406 737.855 548.496 737.449 548.496C735.77 548.496 734.398 547.992 733.336 546.984C732.281 545.969 731.754 544.656 731.754 543.047C731.754 541.375 732.332 540.039 733.488 539.039C734.652 538.039 736.16 537.539 738.012 537.539C739.926 537.539 741.477 538.055 742.664 539.086C743.852 540.109 744.445 541.473 744.445 543.176C744.445 544.16 744.258 545.055 743.883 545.859C743.508 546.664 742.957 547.562 742.23 548.555L737.379 555H733.641ZM738.105 546.34C739.191 546.34 739.992 546.039 740.508 545.438C741.031 544.836 741.293 544.023 741.293 543C741.293 542.039 741.023 541.277 740.484 540.715C739.945 540.152 739.172 539.871 738.164 539.871C737.125 539.871 736.309 540.164 735.715 540.75C735.129 541.336 734.836 542.105 734.836 543.059C734.836 544.074 735.109 544.875 735.656 545.461C736.211 546.047 737.027 546.34 738.105 546.34ZM753.867 555V551.191H746.121V549.105L753.07 537.914H756.973V548.871H759.082L758.93 551.191H756.973V555H753.867ZM749.168 548.883H753.867V540.914L749.168 548.883Z" fill="#AA8094"/>
<path d="M187.383 353.176L188.285 348.266H185.918L186.012 346.168H188.672L189.316 342.477H186.832L186.926 340.379H189.691L190.629 335.914H192.914L192.023 340.379H194.285L195.152 335.914H197.379L196.5 340.379H198.621L198.48 342.465H196.113L195.41 346.168H197.695L197.578 348.266H195.059L194.121 353.176H191.824L192.75 348.266H190.523L189.598 353.176H187.383ZM190.898 346.168H193.172L193.887 342.465H191.625L190.898 346.168ZM205.266 350.27C205.711 350.629 206.246 350.809 206.871 350.809C207.496 350.809 208.027 350.629 208.465 350.27C208.91 349.91 209.246 349.414 209.473 348.781C209.707 348.141 209.875 347.461 209.977 346.742C210.078 346.016 210.129 345.211 210.129 344.328C210.129 340.094 209.043 337.977 206.871 337.977C204.715 337.977 203.621 340.078 203.59 344.281C203.59 345.172 203.641 345.98 203.742 346.707C203.844 347.434 204.012 348.121 204.246 348.77C204.48 349.41 204.82 349.91 205.266 350.27ZM209.367 352.777C208.633 353.09 207.801 353.246 206.871 353.246C205.941 353.246 205.105 353.09 204.363 352.777C203.621 352.457 203.008 352.027 202.523 351.488C202.039 350.941 201.633 350.289 201.305 349.531C200.984 348.773 200.754 347.973 200.613 347.129C200.48 346.285 200.414 345.383 200.414 344.422C200.414 343.445 200.484 342.531 200.625 341.68C200.766 340.82 201 340.012 201.328 339.254C201.656 338.488 202.062 337.836 202.547 337.297C203.039 336.758 203.652 336.332 204.387 336.02C205.121 335.699 205.949 335.539 206.871 335.539C207.793 335.539 208.621 335.699 209.355 336.02C210.09 336.332 210.699 336.762 211.184 337.309C211.668 337.848 212.07 338.5 212.391 339.266C212.719 340.023 212.953 340.828 213.094 341.68C213.234 342.531 213.305 343.445 213.305 344.422C213.305 345.383 213.234 346.285 213.094 347.129C212.961 347.973 212.734 348.777 212.414 349.543C212.094 350.301 211.691 350.949 211.207 351.488C210.723 352.027 210.109 352.457 209.367 352.777ZM220.453 350.27C220.898 350.629 221.434 350.809 222.059 350.809C222.684 350.809 223.215 350.629 223.652 350.27C224.098 349.91 224.434 349.414 224.66 348.781C224.895 348.141 225.062 347.461 225.164 346.742C225.266 346.016 225.316 345.211 225.316 344.328C225.316 340.094 224.23 337.977 222.059 337.977C219.902 337.977 218.809 340.078 218.777 344.281C218.777 345.172 218.828 345.98 218.93 346.707C219.031 347.434 219.199 348.121 219.434 348.77C219.668 349.41 220.008 349.91 220.453 350.27ZM224.555 352.777C223.82 353.09 222.988 353.246 222.059 353.246C221.129 353.246 220.293 353.09 219.551 352.777C218.809 352.457 218.195 352.027 217.711 351.488C217.227 350.941 216.82 350.289 216.492 349.531C216.172 348.773 215.941 347.973 215.801 347.129C215.668 346.285 215.602 345.383 215.602 344.422C215.602 343.445 215.672 342.531 215.812 341.68C215.953 340.82 216.188 340.012 216.516 339.254C216.844 338.488 217.25 337.836 217.734 337.297C218.227 336.758 218.84 336.332 219.574 336.02C220.309 335.699 221.137 335.539 222.059 335.539C222.98 335.539 223.809 335.699 224.543 336.02C225.277 336.332 225.887 336.762 226.371 337.309C226.855 337.848 227.258 338.5 227.578 339.266C227.906 340.023 228.141 340.828 228.281 341.68C228.422 342.531 228.492 343.445 228.492 344.422C228.492 345.383 228.422 346.285 228.281 347.129C228.148 347.973 227.922 348.777 227.602 349.543C227.281 350.301 226.879 350.949 226.395 351.488C225.91 352.027 225.297 352.457 224.555 352.777ZM235.641 350.27C236.086 350.629 236.621 350.809 237.246 350.809C237.871 350.809 238.402 350.629 238.84 350.27C239.285 349.91 239.621 349.414 239.848 348.781C240.082 348.141 240.25 347.461 240.352 346.742C240.453 346.016 240.504 345.211 240.504 344.328C240.504 340.094 239.418 337.977 237.246 337.977C235.09 337.977 233.996 340.078 233.965 344.281C233.965 345.172 234.016 345.98 234.117 346.707C234.219 347.434 234.387 348.121 234.621 348.77C234.855 349.41 235.195 349.91 235.641 350.27ZM239.742 352.777C239.008 353.09 238.176 353.246 237.246 353.246C236.316 353.246 235.48 353.09 234.738 352.777C233.996 352.457 233.383 352.027 232.898 351.488C232.414 350.941 232.008 350.289 231.68 349.531C231.359 348.773 231.129 347.973 230.988 347.129C230.855 346.285 230.789 345.383 230.789 344.422C230.789 343.445 230.859 342.531 231 341.68C231.141 340.82 231.375 340.012 231.703 339.254C232.031 338.488 232.438 337.836 232.922 337.297C233.414 336.758 234.027 336.332 234.762 336.02C235.496 335.699 236.324 335.539 237.246 335.539C238.168 335.539 238.996 335.699 239.73 336.02C240.465 336.332 241.074 336.762 241.559 337.309C242.043 337.848 242.445 338.5 242.766 339.266C243.094 340.023 243.328 340.828 243.469 341.68C243.609 342.531 243.68 343.445 243.68 344.422C243.68 345.383 243.609 346.285 243.469 347.129C243.336 347.973 243.109 348.777 242.789 349.543C242.469 350.301 242.066 350.949 241.582 351.488C241.098 352.027 240.484 352.457 239.742 352.777ZM250.828 350.27C251.273 350.629 251.809 350.809 252.434 350.809C253.059 350.809 253.59 350.629 254.027 350.27C254.473 349.91 254.809 349.414 255.035 348.781C255.27 348.141 255.438 347.461 255.539 346.742C255.641 346.016 255.691 345.211 255.691 344.328C255.691 340.094 254.605 337.977 252.434 337.977C250.277 337.977 249.184 340.078 249.152 344.281C249.152 345.172 249.203 345.98 249.305 346.707C249.406 347.434 249.574 348.121 249.809 348.77C250.043 349.41 250.383 349.91 250.828 350.27ZM254.93 352.777C254.195 353.09 253.363 353.246 252.434 353.246C251.504 353.246 250.668 353.09 249.926 352.777C249.184 352.457 248.57 352.027 248.086 351.488C247.602 350.941 247.195 350.289 246.867 349.531C246.547 348.773 246.316 347.973 246.176 347.129C246.043 346.285 245.977 345.383 245.977 344.422C245.977 343.445 246.047 342.531 246.188 341.68C246.328 340.82 246.562 340.012 246.891 339.254C247.219 338.488 247.625 337.836 248.109 337.297C248.602 336.758 249.215 336.332 249.949 336.02C250.684 335.699 251.512 335.539 252.434 335.539C253.355 335.539 254.184 335.699 254.918 336.02C255.652 336.332 256.262 336.762 256.746 337.309C257.23 337.848 257.633 338.5 257.953 339.266C258.281 340.023 258.516 340.828 258.656 341.68C258.797 342.531 258.867 343.445 258.867 344.422C258.867 345.383 258.797 346.285 258.656 347.129C258.523 347.973 258.297 348.777 257.977 349.543C257.656 350.301 257.254 350.949 256.77 351.488C256.285 352.027 255.672 352.457 254.93 352.777ZM266.016 350.27C266.461 350.629 266.996 350.809 267.621 350.809C268.246 350.809 268.777 350.629 269.215 350.27C269.66 349.91 269.996 349.414 270.223 348.781C270.457 348.141 270.625 347.461 270.727 346.742C270.828 346.016 270.879 345.211 270.879 344.328C270.879 340.094 269.793 337.977 267.621 337.977C265.465 337.977 264.371 340.078 264.34 344.281C264.34 345.172 264.391 345.98 264.492 346.707C264.594 347.434 264.762 348.121 264.996 348.77C265.23 349.41 265.57 349.91 266.016 350.27ZM270.117 352.777C269.383 353.09 268.551 353.246 267.621 353.246C266.691 353.246 265.855 353.09 265.113 352.777C264.371 352.457 263.758 352.027 263.273 351.488C262.789 350.941 262.383 350.289 262.055 349.531C261.734 348.773 261.504 347.973 261.363 347.129C261.23 346.285 261.164 345.383 261.164 344.422C261.164 343.445 261.234 342.531 261.375 341.68C261.516 340.82 261.75 340.012 262.078 339.254C262.406 338.488 262.812 337.836 263.297 337.297C263.789 336.758 264.402 336.332 265.137 336.02C265.871 335.699 266.699 335.539 267.621 335.539C268.543 335.539 269.371 335.699 270.105 336.02C270.84 336.332 271.449 336.762 271.934 337.309C272.418 337.848 272.82 338.5 273.141 339.266C273.469 340.023 273.703 340.828 273.844 341.68C273.984 342.531 274.055 343.445 274.055 344.422C274.055 345.383 273.984 346.285 273.844 347.129C273.711 347.973 273.484 348.777 273.164 349.543C272.844 350.301 272.441 350.949 271.957 351.488C271.473 352.027 270.859 352.457 270.117 352.777ZM277.055 353V335.832H287.461L287.332 338.352H280.23V342.781H286.98V345.301H280.23V350.469H287.59L287.484 353H277.055Z" fill="white"/>
<path d="M410.794 325.461C406.092 325.461 402.364 323.982 399.61 321.023C396.856 318.064 395.479 313.977 395.479 308.762C395.479 303.811 396.915 299.841 399.786 296.853C402.671 293.85 406.443 292.349 411.102 292.349C414.866 292.349 418.052 293.22 420.66 294.963L418.792 299.468C416.287 297.93 413.768 297.161 411.233 297.161C408.274 297.161 405.931 298.23 404.202 300.369C402.488 302.493 401.631 305.349 401.631 308.938C401.631 312.659 402.459 315.537 404.114 317.573C405.784 319.609 408.157 320.627 411.233 320.627C413.929 320.627 416.602 319.954 419.253 318.606L420.044 323.264C417.583 324.729 414.5 325.461 410.794 325.461ZM432.701 317.551C434.297 319.587 436.656 320.605 439.776 320.605C442.896 320.605 445.247 319.595 446.829 317.573C448.426 315.537 449.224 312.666 449.224 308.96C449.224 305.21 448.426 302.302 446.829 300.237C445.247 298.171 442.903 297.139 439.798 297.139C436.678 297.139 434.312 298.179 432.701 300.259C431.104 302.324 430.306 305.225 430.306 308.96C430.306 312.651 431.104 315.515 432.701 317.551ZM439.754 325.461C434.905 325.461 431.075 323.997 428.262 321.067C425.464 318.123 424.065 314.065 424.065 308.894C424.065 303.694 425.472 299.636 428.284 296.721C431.097 293.806 434.927 292.349 439.776 292.349C444.625 292.349 448.448 293.813 451.246 296.743C454.043 299.658 455.442 303.716 455.442 308.916C455.442 314.058 454.036 318.101 451.224 321.045C448.411 323.989 444.588 325.461 439.754 325.461ZM461.089 325V292.81H467.044V320.254H480.513L480.337 325H461.089ZM491.983 317.551C493.58 319.587 495.938 320.605 499.058 320.605C502.178 320.605 504.529 319.595 506.111 317.573C507.708 315.537 508.506 312.666 508.506 308.96C508.506 305.21 507.708 302.302 506.111 300.237C504.529 298.171 502.186 297.139 499.08 297.139C495.96 297.139 493.594 298.179 491.983 300.259C490.386 302.324 489.588 305.225 489.588 308.96C489.588 312.651 490.386 315.515 491.983 317.551ZM499.036 325.461C494.188 325.461 490.357 323.997 487.544 321.067C484.747 318.123 483.348 314.065 483.348 308.894C483.348 303.694 484.754 299.636 487.566 296.721C490.379 293.806 494.209 292.349 499.058 292.349C503.907 292.349 507.73 293.813 510.528 296.743C513.326 299.658 514.725 303.716 514.725 308.916C514.725 314.058 513.318 318.101 510.506 321.045C507.693 323.989 503.87 325.461 499.036 325.461ZM520.218 325V292.722H532.149C533.775 292.722 535.181 292.795 536.368 292.942C537.569 293.088 538.704 293.359 539.773 293.755C540.857 294.136 541.729 294.656 542.388 295.315C543.062 295.974 543.589 296.838 543.97 297.908C544.366 298.962 544.563 300.215 544.563 301.665C544.563 305.942 542.623 308.755 538.741 310.103C539.532 310.996 540.513 312.651 541.685 315.068L546.475 325H539.971L536.214 316.584C534.793 313.567 533.914 311.78 533.577 311.223C533.328 311.208 532.5 311.201 531.094 311.201L526.106 311.157V325H520.218ZM532.676 306.895C534.961 306.895 536.602 306.492 537.598 305.686C538.594 304.866 539.092 303.555 539.092 301.753C539.092 300.171 538.587 299.006 537.576 298.259C536.565 297.512 535.02 297.139 532.94 297.139H526.106V306.873C526.326 306.873 527.417 306.88 529.38 306.895C531.343 306.895 532.442 306.895 532.676 306.895ZM551.155 325V292.81H557.11V325H551.155Z" fill="black"/>
<path d="M564.229 325V292.81H571.26L580.994 316.057L590.794 292.81H597.737V325H592.244V309.092L592.42 299.973L591.607 302.39L583.367 322.803H578.27L570.206 302.28L569.393 299.863L569.59 309.18V325H564.229ZM612.876 289.668L616.634 281.252H623.204L616.282 289.668H612.876ZM604.703 325V292.81H624.214L623.973 297.534H610.657V305.84H623.313V310.564H610.657V320.254H624.456L624.258 325H604.703ZM636.233 325V297.578H626.851V292.81H651.548V297.578H642.21V325H636.233ZM654.866 325V292.722H666.797C668.423 292.722 669.83 292.795 671.016 292.942C672.217 293.088 673.353 293.359 674.422 293.755C675.506 294.136 676.377 294.656 677.037 295.315C677.71 295.974 678.238 296.838 678.619 297.908C679.014 298.962 679.212 300.215 679.212 301.665C679.212 305.942 677.271 308.755 673.389 310.103C674.18 310.996 675.162 312.651 676.333 315.068L681.124 325H674.62L670.862 316.584C669.441 313.567 668.562 311.78 668.226 311.223C667.977 311.208 667.149 311.201 665.743 311.201L660.755 311.157V325H654.866ZM667.325 306.895C669.61 306.895 671.25 306.492 672.247 305.686C673.243 304.866 673.741 303.555 673.741 301.753C673.741 300.171 673.235 299.006 672.225 298.259C671.214 297.512 669.668 297.139 667.588 297.139H660.755V306.873C660.975 306.873 662.066 306.88 664.029 306.895C665.992 306.895 667.09 306.895 667.325 306.895ZM685.804 325V292.81H691.758V325H685.804ZM698.877 325V292.81H718.389L718.147 297.534H704.832V305.84H717.488V310.564H704.832V320.254H718.631L718.433 325H698.877Z" fill="#F1EAF2" fill-opacity="0.55"/>
<path d="M816.383 204.176L817.285 199.266H814.918L815.012 197.168H817.672L818.316 193.477H815.832L815.926 191.379H818.691L819.629 186.914H821.914L821.023 191.379H823.285L824.152 186.914H826.379L825.5 191.379H827.621L827.48 193.465H825.113L824.41 197.168H826.695L826.578 199.266H824.059L823.121 204.176H820.824L821.75 199.266H819.523L818.598 204.176H816.383ZM819.898 197.168H822.172L822.887 193.465H820.625L819.898 197.168ZM834.266 201.27C834.711 201.629 835.246 201.809 835.871 201.809C836.496 201.809 837.027 201.629 837.465 201.27C837.91 200.91 838.246 200.414 838.473 199.781C838.707 199.141 838.875 198.461 838.977 197.742C839.078 197.016 839.129 196.211 839.129 195.328C839.129 191.094 838.043 188.977 835.871 188.977C833.715 188.977 832.621 191.078 832.59 195.281C832.59 196.172 832.641 196.98 832.742 197.707C832.844 198.434 833.012 199.121 833.246 199.77C833.48 200.41 833.82 200.91 834.266 201.27ZM838.367 203.777C837.633 204.09 836.801 204.246 835.871 204.246C834.941 204.246 834.105 204.09 833.363 203.777C832.621 203.457 832.008 203.027 831.523 202.488C831.039 201.941 830.633 201.289 830.305 200.531C829.984 199.773 829.754 198.973 829.613 198.129C829.48 197.285 829.414 196.383 829.414 195.422C829.414 194.445 829.484 193.531 829.625 192.68C829.766 191.82 830 191.012 830.328 190.254C830.656 189.488 831.062 188.836 831.547 188.297C832.039 187.758 832.652 187.332 833.387 187.02C834.121 186.699 834.949 186.539 835.871 186.539C836.793 186.539 837.621 186.699 838.355 187.02C839.09 187.332 839.699 187.762 840.184 188.309C840.668 188.848 841.07 189.5 841.391 190.266C841.719 191.023 841.953 191.828 842.094 192.68C842.234 193.531 842.305 194.445 842.305 195.422C842.305 196.383 842.234 197.285 842.094 198.129C841.961 198.973 841.734 199.777 841.414 200.543C841.094 201.301 840.691 201.949 840.207 202.488C839.723 203.027 839.109 203.457 838.367 203.777ZM849.453 201.27C849.898 201.629 850.434 201.809 851.059 201.809C851.684 201.809 852.215 201.629 852.652 201.27C853.098 200.91 853.434 200.414 853.66 199.781C853.895 199.141 854.062 198.461 854.164 197.742C854.266 197.016 854.316 196.211 854.316 195.328C854.316 191.094 853.23 188.977 851.059 188.977C848.902 188.977 847.809 191.078 847.777 195.281C847.777 196.172 847.828 196.98 847.93 197.707C848.031 198.434 848.199 199.121 848.434 199.77C848.668 200.41 849.008 200.91 849.453 201.27ZM853.555 203.777C852.82 204.09 851.988 204.246 851.059 204.246C850.129 204.246 849.293 204.09 848.551 203.777C847.809 203.457 847.195 203.027 846.711 202.488C846.227 201.941 845.82 201.289 845.492 200.531C845.172 199.773 844.941 198.973 844.801 198.129C844.668 197.285 844.602 196.383 844.602 195.422C844.602 194.445 844.672 193.531 844.812 192.68C844.953 191.82 845.188 191.012 845.516 190.254C845.844 189.488 846.25 188.836 846.734 188.297C847.227 187.758 847.84 187.332 848.574 187.02C849.309 186.699 850.137 186.539 851.059 186.539C851.98 186.539 852.809 186.699 853.543 187.02C854.277 187.332 854.887 187.762 855.371 188.309C855.855 188.848 856.258 189.5 856.578 190.266C856.906 191.023 857.141 191.828 857.281 192.68C857.422 193.531 857.492 194.445 857.492 195.422C857.492 196.383 857.422 197.285 857.281 198.129C857.148 198.973 856.922 199.777 856.602 200.543C856.281 201.301 855.879 201.949 855.395 202.488C854.91 203.027 854.297 203.457 853.555 203.777ZM864.641 201.27C865.086 201.629 865.621 201.809 866.246 201.809C866.871 201.809 867.402 201.629 867.84 201.27C868.285 200.91 868.621 200.414 868.848 199.781C869.082 199.141 869.25 198.461 869.352 197.742C869.453 197.016 869.504 196.211 869.504 195.328C869.504 191.094 868.418 188.977 866.246 188.977C864.09 188.977 862.996 191.078 862.965 195.281C862.965 196.172 863.016 196.98 863.117 197.707C863.219 198.434 863.387 199.121 863.621 199.77C863.855 200.41 864.195 200.91 864.641 201.27ZM868.742 203.777C868.008 204.09 867.176 204.246 866.246 204.246C865.316 204.246 864.48 204.09 863.738 203.777C862.996 203.457 862.383 203.027 861.898 202.488C861.414 201.941 861.008 201.289 860.68 200.531C860.359 199.773 860.129 198.973 859.988 198.129C859.855 197.285 859.789 196.383 859.789 195.422C859.789 194.445 859.859 193.531 860 192.68C860.141 191.82 860.375 191.012 860.703 190.254C861.031 189.488 861.438 188.836 861.922 188.297C862.414 187.758 863.027 187.332 863.762 187.02C864.496 186.699 865.324 186.539 866.246 186.539C867.168 186.539 867.996 186.699 868.73 187.02C869.465 187.332 870.074 187.762 870.559 188.309C871.043 188.848 871.445 189.5 871.766 190.266C872.094 191.023 872.328 191.828 872.469 192.68C872.609 193.531 872.68 194.445 872.68 195.422C872.68 196.383 872.609 197.285 872.469 198.129C872.336 198.973 872.109 199.777 871.789 200.543C871.469 201.301 871.066 201.949 870.582 202.488C870.098 203.027 869.484 203.457 868.742 203.777ZM879.828 201.27C880.273 201.629 880.809 201.809 881.434 201.809C882.059 201.809 882.59 201.629 883.027 201.27C883.473 200.91 883.809 200.414 884.035 199.781C884.27 199.141 884.438 198.461 884.539 197.742C884.641 197.016 884.691 196.211 884.691 195.328C884.691 191.094 883.605 188.977 881.434 188.977C879.277 188.977 878.184 191.078 878.152 195.281C878.152 196.172 878.203 196.98 878.305 197.707C878.406 198.434 878.574 199.121 878.809 199.77C879.043 200.41 879.383 200.91 879.828 201.27ZM883.93 203.777C883.195 204.09 882.363 204.246 881.434 204.246C880.504 204.246 879.668 204.09 878.926 203.777C878.184 203.457 877.57 203.027 877.086 202.488C876.602 201.941 876.195 201.289 875.867 200.531C875.547 199.773 875.316 198.973 875.176 198.129C875.043 197.285 874.977 196.383 874.977 195.422C874.977 194.445 875.047 193.531 875.188 192.68C875.328 191.82 875.562 191.012 875.891 190.254C876.219 189.488 876.625 188.836 877.109 188.297C877.602 187.758 878.215 187.332 878.949 187.02C879.684 186.699 880.512 186.539 881.434 186.539C882.355 186.539 883.184 186.699 883.918 187.02C884.652 187.332 885.262 187.762 885.746 188.309C886.23 188.848 886.633 189.5 886.953 190.266C887.281 191.023 887.516 191.828 887.656 192.68C887.797 193.531 887.867 194.445 887.867 195.422C887.867 196.383 887.797 197.285 887.656 198.129C887.523 198.973 887.297 199.777 886.977 200.543C886.656 201.301 886.254 201.949 885.77 202.488C885.285 203.027 884.672 203.457 883.93 203.777ZM895.016 201.27C895.461 201.629 895.996 201.809 896.621 201.809C897.246 201.809 897.777 201.629 898.215 201.27C898.66 200.91 898.996 200.414 899.223 199.781C899.457 199.141 899.625 198.461 899.727 197.742C899.828 197.016 899.879 196.211 899.879 195.328C899.879 191.094 898.793 188.977 896.621 188.977C894.465 188.977 893.371 191.078 893.34 195.281C893.34 196.172 893.391 196.98 893.492 197.707C893.594 198.434 893.762 199.121 893.996 199.77C894.23 200.41 894.57 200.91 895.016 201.27ZM899.117 203.777C898.383 204.09 897.551 204.246 896.621 204.246C895.691 204.246 894.855 204.09 894.113 203.777C893.371 203.457 892.758 203.027 892.273 202.488C891.789 201.941 891.383 201.289 891.055 200.531C890.734 199.773 890.504 198.973 890.363 198.129C890.23 197.285 890.164 196.383 890.164 195.422C890.164 194.445 890.234 193.531 890.375 192.68C890.516 191.82 890.75 191.012 891.078 190.254C891.406 189.488 891.812 188.836 892.297 188.297C892.789 187.758 893.402 187.332 894.137 187.02C894.871 186.699 895.699 186.539 896.621 186.539C897.543 186.539 898.371 186.699 899.105 187.02C899.84 187.332 900.449 187.762 900.934 188.309C901.418 188.848 901.82 189.5 902.141 190.266C902.469 191.023 902.703 191.828 902.844 192.68C902.984 193.531 903.055 194.445 903.055 195.422C903.055 196.383 902.984 197.285 902.844 198.129C902.711 198.973 902.484 199.777 902.164 200.543C901.844 201.301 901.441 201.949 900.957 202.488C900.473 203.027 899.859 203.457 899.117 203.777ZM906.055 204V186.832H916.461L916.332 189.352H909.23V193.781H915.98V196.301H909.23V201.469H916.59L916.484 204H906.055Z" fill="black"/>
<path d="M839.731 782.982C839.224 782.982 838.724 782.768 838.415 782.37C834.585 777.481 830.457 772.64 826.47 767.955C816.815 756.627 806.832 744.912 799.937 731.27C796.402 724.279 793.56 716.96 790.812 709.88C787.184 700.539 783.432 690.878 778.069 681.968C777.477 680.975 776.869 679.975 776.242 678.953L775.903 678.39C775.493 677.7 775.795 676.848 776.578 676.486C777.357 676.128 778.327 676.391 778.737 677.082L779.065 677.627C779.688 678.64 780.296 679.65 780.896 680.649C786.374 689.754 790.167 699.52 793.836 708.966C796.562 715.986 799.382 723.247 802.857 730.125C809.607 743.472 819.478 755.059 829.025 766.262C833.033 770.967 837.18 775.833 841.044 780.772C841.547 781.41 841.364 782.288 840.637 782.732C840.361 782.899 840.044 782.982 839.731 782.982Z" fill="#737373"/>
<path d="M547.988 736.129C547.984 736.129 547.981 736.129 547.977 736.129C547.093 736.126 546.381 735.491 546.388 734.709C546.448 725.969 555.957 717.857 562.897 711.932C563.744 711.209 564.553 710.518 565.302 709.864C566.011 709.239 566.66 708.693 567.283 708.193C567.939 707.674 568.95 707.717 569.543 708.295C570.135 708.871 570.083 709.762 569.431 710.285C568.845 710.752 568.234 711.268 567.559 711.863C566.798 712.527 565.977 713.228 565.123 713.958C558.586 719.534 549.636 727.172 549.584 734.728C549.58 735.504 548.864 736.129 547.988 736.129Z" fill="#737373"/>
<path d="M674.317 724.92C664.118 724.92 656.659 720.833 649.432 716.871C645.092 714.49 640.602 712.028 635.508 710.436C627.427 707.901 617.928 707.766 610.563 707.934L610.291 707.94C596.404 708.263 582.046 708.595 568.629 710.63C568.04 710.716 567.465 710.808 566.899 710.9C563.281 711.495 559.821 712.36 556.476 713.195C551.65 714.398 546.661 715.644 541.201 716.075L538.725 716.276C530.677 716.93 523.726 717.499 515.067 715.539C512.293 714.911 509.059 713.941 505.961 712.807C502.358 711.492 499.069 710.032 496.186 708.467C495.437 708.059 495.202 707.191 495.664 706.527C496.127 705.866 497.111 705.658 497.865 706.066C500.602 707.552 503.738 708.943 507.187 710.203C510.152 711.288 513.232 712.215 515.861 712.81C523.984 714.645 530.36 714.125 538.43 713.468L540.918 713.267C546.079 712.859 550.707 711.705 555.603 710.482C559.019 709.631 562.55 708.749 566.313 708.128C566.902 708.033 567.499 707.934 568.099 707.848C581.729 705.78 596.206 705.445 610.205 705.123L610.481 705.116C618.126 704.942 628.001 705.09 636.578 707.779C641.996 709.473 646.635 712.018 651.122 714.477C658.811 718.693 666.079 722.674 676.491 722.037C677.352 721.974 678.136 722.566 678.195 723.342C678.259 724.121 677.591 724.795 676.711 724.848C675.898 724.897 675.096 724.92 674.317 724.92Z" fill="#737373"/>
<path d="M497.022 708.677C496.216 708.677 495.526 708.141 495.437 707.421C495.4 707.135 495.377 706.855 495.362 706.579C495.079 700.325 499.554 696.212 504.435 692.697C505.398 692 506.386 691.316 507.367 690.642L508.623 689.77C528.791 675.645 558.389 672.794 584.504 670.279C587.741 669.966 590.941 669.66 594.084 669.335C594.957 669.239 595.755 669.798 595.856 670.571C595.96 671.344 595.334 672.044 594.453 672.136C591.306 672.462 588.095 672.768 584.855 673.08C559.168 675.556 530.055 678.361 510.607 691.98L509.339 692.858C508.377 693.522 507.408 694.193 506.46 694.88C501.56 698.408 498.346 701.729 498.558 706.467C498.569 706.681 498.588 706.892 498.614 707.112C498.711 707.885 498.077 708.582 497.201 708.667C497.141 708.674 497.082 708.677 497.022 708.677Z" fill="#737373"/>
<path d="M506.58 712.915C506.524 712.915 506.472 712.912 506.419 712.909C503.208 712.626 500.259 712.261 497.402 711.791C487.673 710.157 479.375 707.319 471.279 702.86L469.918 702.111C464.34 699.026 459.928 696.593 453.339 695.991C450.213 695.709 447.129 695.982 443.866 696.271C442.185 696.422 440.443 696.577 438.705 696.646C437.344 696.708 436.099 696.708 434.902 696.642C430.33 696.406 426.045 695.557 421.902 694.739C416.409 693.654 411.221 692.624 405.374 692.894C396.681 693.285 386.121 696.758 379.099 701.532C378.748 701.772 378.394 702.019 378.051 702.278C377.379 702.781 376.369 702.709 375.798 702.12C375.224 701.529 375.306 700.638 375.977 700.131C376.358 699.845 376.753 699.566 377.144 699.299C384.759 694.124 395.775 690.504 405.21 690.079C411.486 689.793 417.14 690.908 422.603 691.987C426.619 692.782 430.777 693.604 435.092 693.828C436.17 693.887 437.299 693.887 438.549 693.828C440.208 693.762 441.905 693.611 443.546 693.466C446.824 693.177 450.217 692.874 453.667 693.187C460.998 693.854 465.921 696.573 471.619 699.723L472.969 700.47C480.722 704.738 488.672 707.454 497.995 709.022C500.758 709.476 503.615 709.831 506.733 710.104C507.613 710.18 508.254 710.87 508.168 711.646C508.086 712.373 507.389 712.915 506.58 712.915Z" fill="#737373"/>
<path d="M378.218 703.012C378.028 703.012 377.838 702.979 377.652 702.92C377.264 702.788 376.861 702.657 376.462 702.529C372.774 701.322 368.195 699.822 365.812 696.298C363.992 693.601 363.541 691.204 364.469 689.179C366.181 685.44 371.868 684.072 376.883 682.866C377.92 682.619 378.908 682.382 379.796 682.136L380.527 681.932C389.95 679.311 397.39 677.24 407.537 680.097C409.23 680.571 410.949 681.12 412.639 681.735C419.09 684.033 425.321 687.114 431.348 690.093C433.977 691.395 436.695 692.74 439.38 693.989C440.163 694.354 440.462 695.209 440.048 695.896C439.634 696.584 438.664 696.847 437.885 696.482C435.166 695.216 432.433 693.861 429.785 692.552C423.845 689.616 417.703 686.581 411.43 684.345C409.812 683.757 408.182 683.234 406.568 682.783C397.386 680.199 390.719 682.053 381.489 684.622L380.754 684.825C379.833 685.082 378.8 685.328 377.726 685.588C373.639 686.568 368.553 687.791 367.434 690.234C366.901 691.402 367.277 692.957 368.56 694.854C370.231 697.327 373.486 698.547 377.57 699.882C377.976 700.016 378.386 700.148 378.782 700.283C379.609 700.556 380.027 701.371 379.714 702.098C379.471 702.663 378.864 703.012 378.218 703.012Z" fill="#737373"/>
<path d="M505.446 695.199C505.285 695.199 505.121 695.179 504.961 695.133C495.709 692.536 485.499 690.523 474.617 689.149C471.22 688.721 467.781 688.652 464.455 688.583C458.552 688.462 452.451 688.333 446.458 686.206C444.318 685.446 442.322 684.608 440.391 683.799C435.039 681.553 430.426 679.617 424.333 679.738C417.669 679.87 415.823 680.836 413.321 683.868C412.799 684.496 411.799 684.634 411.087 684.177C410.375 683.72 410.214 682.836 410.736 682.208C414.044 678.203 416.953 677.065 424.262 676.92C431.105 676.779 436.285 678.952 441.767 681.251C443.654 682.043 445.604 682.862 447.655 683.592C453.107 685.525 458.656 685.64 464.53 685.765C467.949 685.834 471.484 685.907 475.072 686.361C486.129 687.755 496.511 689.803 505.931 692.443C506.773 692.68 507.236 693.476 506.971 694.216C506.751 694.818 506.125 695.199 505.446 695.199Z" fill="#737373"/>
<path d="M546.474 762.171C546.258 762.171 546.038 762.135 545.829 762.053C541.682 760.445 537.793 758.173 534.03 755.976C532.132 754.865 530.338 753.816 528.507 752.843C520.937 748.828 512.957 747.687 504.507 746.484C497.417 745.471 490.082 744.422 483.056 741.522C476.847 738.967 470.508 735.945 464.377 733.025C451.575 726.926 438.336 720.616 424.706 717.657C413.948 715.316 402.324 713.297 390.159 711.659C388.507 711.432 387.139 711.179 385.979 710.887C379.901 709.417 377.189 706.763 376.626 701.739C376.582 701.341 376.548 700.92 376.526 700.48C376.485 699.7 377.167 699.043 378.051 699.007C378.946 698.971 379.681 699.572 379.718 700.352C379.74 700.736 379.77 701.108 379.807 701.46C380.184 704.8 381.415 706.859 386.837 708.174C387.888 708.437 389.13 708.664 390.648 708.871C402.902 710.522 414.619 712.557 425.471 714.921C439.496 717.966 452.921 724.361 465.899 730.546C471.988 733.446 478.283 736.445 484.41 738.97C491.033 741.703 498.145 742.719 505.017 743.699C513.397 744.895 522.06 746.132 530.159 750.429C532.046 751.432 533.952 752.547 535.798 753.625C539.449 755.756 543.223 757.959 547.116 759.472C547.925 759.787 548.294 760.619 547.936 761.329C547.671 761.859 547.086 762.171 546.474 762.171Z" fill="#737373"/>
<path d="M752.335 826C751.481 826 750.772 825.402 750.735 824.645C750.702 823.866 751.388 823.212 752.271 823.179C769.743 822.567 789.928 814.646 793.799 813.065C813.623 804.959 827.522 792.136 838.508 780.66C839.079 780.069 840.086 779.993 840.761 780.493C841.436 780.996 841.521 781.884 840.951 782.479C829.741 794.191 815.533 807.287 795.142 815.623C791.178 817.244 770.477 825.365 752.398 825.997C752.376 826 752.357 826 752.335 826Z" fill="#737373"/>
<path d="M752.331 826C751.6 826 750.94 825.553 750.772 824.895C746.912 809.671 741.83 794.29 735.662 779.181C735.031 777.639 734.409 776.1 733.786 774.568C730.239 765.795 726.891 757.509 722.352 749.585C721.953 748.891 722.27 748.043 723.057 747.691C723.848 747.342 724.806 747.618 725.205 748.312C729.833 756.394 733.219 764.763 736.799 773.621C737.418 775.15 738.041 776.685 738.671 778.227C744.884 793.445 750.008 808.942 753.893 824.281C754.087 825.04 753.547 825.793 752.681 825.964C752.566 825.987 752.446 826 752.331 826Z" fill="#737373"/>
<path d="M566.496 763.772C564.315 763.772 562.129 763.703 559.937 763.552C555.156 763.216 550.368 762.657 546.254 762.161C545.382 762.052 544.77 761.342 544.889 760.573C545.009 759.8 545.81 759.254 546.691 759.366C550.759 759.856 555.491 760.412 560.19 760.737C571.389 761.52 582.614 759.994 593.469 758.518C598.481 757.837 603.661 757.133 608.822 756.653C621.05 755.516 633.498 753.247 645.536 751.05C663.212 747.828 681.5 744.533 699.731 744.589C709.535 744.632 717.337 745.592 724.28 747.611C725.116 747.854 725.574 748.65 725.298 749.39C725.019 750.13 724.113 750.531 723.277 750.288C716.662 748.364 709.174 747.45 699.713 747.407C681.787 747.338 663.697 750.62 646.184 753.812C634.068 756.022 621.542 758.307 609.158 759.458C604.075 759.928 598.929 760.629 593.958 761.306C585.011 762.523 575.819 763.772 566.496 763.772Z" fill="#737373"/>
<path d="M777.309 679.127C777.04 679.127 776.787 679.068 776.563 678.966C776.459 678.916 776.354 678.857 776.261 678.788C776.201 678.759 776.175 678.739 776.123 678.703C761.214 668.786 744.988 660.49 727.894 654.042C722.77 652.122 716.677 650.004 710.322 648.893C702.308 647.495 694.119 647.647 684.289 648.304C656.786 650.146 635.478 654.45 617.227 661.848C615.493 662.552 613.979 663.193 612.596 663.808C609.035 665.376 605.443 667.076 601.968 668.723C599.652 669.818 597.332 670.916 595.009 671.985C594.226 672.343 593.26 672.077 592.85 671.387C592.444 670.696 592.746 669.845 593.532 669.483C595.845 668.421 598.149 667.329 600.457 666.237C603.952 664.584 607.565 662.87 611.164 661.286C612.573 660.661 614.121 660.007 615.885 659.286C634.501 651.744 656.156 647.36 684.046 645.496C694.138 644.819 702.573 644.668 710.945 646.127C717.583 647.291 723.874 649.471 729.147 651.448C746.461 657.978 762.892 666.376 777.991 676.414C778.081 676.467 778.167 676.519 778.249 676.579C778.648 676.838 778.909 677.253 778.909 677.716C778.909 678.496 778.193 679.127 777.309 679.127Z" fill="#737373"/>
<path d="M777.652 678.752C777.48 678.752 777.313 678.68 777.208 678.545C777.029 678.315 776.843 678.085 776.652 677.851C776.563 677.743 776.47 677.621 776.391 677.509C776.231 677.292 776.306 677 776.552 676.861C776.802 676.72 777.134 676.786 777.29 677.006C777.357 677.102 777.436 677.207 777.518 677.302C777.712 677.539 777.905 677.779 778.092 678.019C778.256 678.233 778.193 678.525 777.95 678.67C777.857 678.726 777.753 678.752 777.652 678.752Z" fill="#737373"/>
<defs>
<filter id="filter0_d" x="244.955" y="207.587" width="362.57" height="380.867" filterUnits="userSpaceOnUse" color-interpolation-filters="sRGB">
<feFlood flood-opacity="0" result="BackgroundImageFix"/>
<feColorMatrix in="SourceAlpha" type="matrix" values="0 0 0 0 0 0 0 0 0 0 0 0 0 0 0 0 0 0 127 0"/>
<feOffset dy="39.2317"/>
<feGaussianBlur stdDeviation="28.0227"/>
<feColorMatrix type="matrix" values="0 0 0 0 0.406806 0 0 0 0 0.815575 0 0 0 0 0.841667 0 0 0 0.3 0"/>
<feBlend mode="normal" in2="BackgroundImageFix" result="effect1_dropShadow"/>
<feBlend mode="normal" in="SourceGraphic" in2="effect1_dropShadow" result="shape"/>
</filter>
<filter id="filter1_d" x="433.018" y="375.93" width="265.823" height="279.018" filterUnits="userSpaceOnUse" color-interpolation-filters="sRGB">
<feFlood flood-opacity="0" result="BackgroundImageFix"/>
<feColorMatrix in="SourceAlpha" type="matrix" values="0 0 0 0 0 0 0 0 0 0 0 0 0 0 0 0 0 0 127 0"/>
<feOffset dy="40.3526"/>
<feGaussianBlur stdDeviation="21.2972"/>
<feColorMatrix type="matrix" values="0 0 0 0 0.775 0 0 0 0 0.4185 0 0 0 0 0 0 0 0 0.25 0"/>
<feBlend mode="normal" in2="BackgroundImageFix" result="effect1_dropShadow"/>
<feBlend mode="normal" in="SourceGraphic" in2="effect1_dropShadow" result="shape"/>
</filter>
<filter id="filter2_d" x="346.867" y="10.801" width="565.773" height="592.69" filterUnits="userSpaceOnUse" color-interpolation-filters="sRGB">
<feFlood flood-opacity="0" result="BackgroundImageFix"/>
<feColorMatrix in="SourceAlpha" type="matrix" values="0 0 0 0 0 0 0 0 0 0 0 0 0 0 0 0 0 0 127 0"/>
<feOffset dy="50.4408"/>
<feGaussianBlur stdDeviation="49.3199"/>
<feColorMatrix type="matrix" values="0 0 0 0 0.753334 0 0 0 0 0 0 0 0 0 0.941667 0 0 0 0.55 0"/>
<feBlend mode="normal" in2="BackgroundImageFix" result="effect1_dropShadow"/>
<feBlend mode="normal" in="SourceGraphic" in2="effect1_dropShadow" result="shape"/>
</filter>
</defs>
</svg>
