<?xml version="1.0" encoding="utf-8"?>
<!-- Generator: Adobe Illustrator 16.0.0, SVG Export Plug-In . SVG Version: 6.00 Build 0)  -->
<!DOCTYPE svg PUBLIC "-//W3C//DTD SVG 1.1//EN" "http://www.w3.org/Graphics/SVG/1.1/DTD/svg11.dtd">
<svg version="1.1" id="Calque_1" xmlns="http://www.w3.org/2000/svg" xmlns:xlink="http://www.w3.org/1999/xlink" x="0px" y="0px"
	 width="926px" height="926px" viewBox="0 0 926 926" enable-background="new 0 0 926 926" xml:space="preserve">
<g>
	<g>
		<g>
			<g id="__id22_sayas0pug">
				<path fill="#737373" d="M774.646,640.572c-0.666,0-1.324-0.336-1.73-0.96c-5.035-7.668-10.461-15.259-15.701-22.608
					c-12.693-17.766-25.816-36.14-34.881-57.536c-4.648-10.965-8.385-22.444-11.996-33.546c-4.77-14.651-9.703-29.803-16.752-43.779
					c-0.779-1.557-1.578-3.125-2.402-4.729l-0.445-0.881c-0.539-1.084-0.143-2.419,0.887-2.986c1.025-0.563,2.299-0.149,2.84,0.934
					l0.43,0.855c0.818,1.589,1.619,3.172,2.406,4.739c7.203,14.279,12.189,29.597,17.014,44.412
					c3.582,11.01,7.289,22.396,11.857,33.186c8.873,20.933,21.85,39.105,34.4,56.676c5.27,7.38,10.721,15.013,15.801,22.758
					c0.66,1.001,0.42,2.378-0.535,3.073C775.475,640.443,775.059,640.572,774.646,640.572"/>
			</g>
			<g id="__id23_sayas0pug">
				<path fill="#737373" d="M391.121,567.09c-0.005,0-0.01,0-0.014,0c-1.163-0.005-2.1-1.001-2.09-2.229
					c0.08-13.707,12.58-26.43,21.703-35.722c1.113-1.135,2.177-2.218,3.162-3.245c0.932-0.979,1.785-1.836,2.604-2.618
					c0.862-0.815,2.191-0.749,2.971,0.158c0.779,0.903,0.711,2.301-0.146,3.121c-0.77,0.732-1.574,1.542-2.461,2.476
					c-1,1.042-2.08,2.14-3.201,3.284c-8.594,8.746-20.359,20.727-20.429,32.577C393.215,566.11,392.273,567.09,391.121,567.09"/>
			</g>
			<g id="__id24_sayas0pug">
				<path fill="#737373" d="M557.193,549.51c-13.408,0-23.213-6.41-32.713-12.624c-5.707-3.734-11.609-7.598-18.307-10.094
					c-10.623-3.976-23.109-4.187-32.791-3.925l-0.357,0.012c-18.258,0.505-37.131,1.026-54.77,4.218
					c-0.774,0.135-1.529,0.278-2.275,0.423c-4.754,0.934-9.305,2.29-13.701,3.6c-6.344,1.888-12.903,3.842-20.08,4.519l-3.256,0.314
					c-10.578,1.025-19.717,1.918-31.1-1.156c-3.647-0.984-7.898-2.506-11.972-4.285c-4.735-2.063-9.06-4.353-12.849-6.808
					c-0.986-0.639-1.295-2-0.688-3.043c0.609-1.036,1.902-1.36,2.893-0.721c3.599,2.331,7.722,4.511,12.256,6.487
					c3.898,1.701,7.947,3.155,11.403,4.089c10.677,2.878,19.06,2.063,29.669,1.032l3.27-0.315
					c6.785-0.639,12.869-2.449,19.306-4.368c4.491-1.335,9.134-2.717,14.08-3.691c0.774-0.149,1.559-0.306,2.348-0.438
					c17.919-3.244,36.948-3.77,55.353-4.275l0.363-0.011c10.049-0.272,23.031-0.041,34.307,4.178
					c7.123,2.655,13.221,6.646,19.119,10.505c10.107,6.611,19.662,12.855,33.35,11.855c1.133-0.098,2.162,0.831,2.24,2.048
					c0.084,1.222-0.793,2.279-1.951,2.361C559.271,549.474,558.217,549.51,557.193,549.51"/>
			</g>
			<g id="__id25_sayas0pug">
				<path fill="#737373" d="M324.121,524.033c-1.059,0-1.966-0.841-2.084-1.97c-0.049-0.448-0.078-0.887-0.098-1.319
					c-0.373-9.809,5.51-16.261,11.928-21.773c1.265-1.094,2.563-2.166,3.854-3.224l1.652-1.367
					c26.512-22.153,65.422-26.625,99.752-30.569c4.256-0.49,8.461-0.971,12.594-1.48c1.148-0.149,2.197,0.728,2.328,1.939
					c0.139,1.211-0.686,2.31-1.842,2.454c-4.139,0.511-8.359,0.99-12.619,1.48c-33.768,3.883-72.039,8.282-97.605,29.643
					l-1.667,1.377c-1.265,1.041-2.54,2.094-3.784,3.171c-6.442,5.533-10.668,10.742-10.389,18.174
					c0.016,0.335,0.039,0.665,0.074,1.01c0.127,1.212-0.707,2.307-1.858,2.439C324.277,524.028,324.199,524.033,324.121,524.033"/>
			</g>
			<g id="__id26_sayas0pug">
				<path fill="#737373" d="M336.686,530.682c-0.073,0-0.142-0.006-0.211-0.011c-4.221-0.444-8.098-1.016-11.854-1.754
					c-12.79-2.563-23.698-7.014-34.341-14.006l-1.79-1.176c-7.334-4.838-13.133-8.653-21.796-9.598
					c-4.108-0.443-8.162-0.015-12.451,0.438c-2.212,0.237-4.501,0.48-6.785,0.588c-1.789,0.099-3.427,0.099-5-0.005
					c-6.011-0.371-11.644-1.701-17.09-2.986c-7.222-1.701-14.041-3.315-21.728-2.893c-11.427,0.613-25.311,6.06-34.542,13.547
					c-0.461,0.377-0.927,0.764-1.377,1.171c-0.883,0.788-2.212,0.676-2.961-0.247c-0.755-0.929-0.647-2.326,0.234-3.12
					c0.5-0.449,1.021-0.888,1.535-1.306c10.011-8.117,24.491-13.794,36.895-14.459c8.251-0.449,15.684,1.299,22.865,2.99
					c5.279,1.248,10.746,2.537,16.417,2.889c1.417,0.092,2.902,0.092,4.545,0c2.182-0.103,4.412-0.341,6.569-0.567
					c4.309-0.453,8.771-0.929,13.305-0.438c9.639,1.047,16.109,5.311,23.601,10.251l1.774,1.172
					c10.191,6.693,20.644,10.953,32.899,13.413c3.633,0.711,7.389,1.269,11.486,1.696c1.157,0.119,2,1.201,1.888,2.419
					C338.666,529.83,337.75,530.682,336.686,530.682"/>
			</g>
			<g id="__id27_sayas0pug">
				<path fill="#737373" d="M167.941,515.148c-0.249,0-0.5-0.053-0.745-0.145c-0.509-0.207-1.039-0.413-1.563-0.614
					c-4.849-1.892-10.869-4.244-14.001-9.772c-2.393-4.228-2.985-7.988-1.765-11.165c2.25-5.863,9.727-8.008,16.319-9.901
					c1.363-0.387,2.662-0.757,3.829-1.146l0.961-0.318c12.388-4.111,22.168-7.359,35.508-2.878c2.226,0.742,4.485,1.604,6.706,2.568
					c8.481,3.604,16.673,8.437,24.596,13.109c3.455,2.042,7.029,4.151,10.56,6.111c1.029,0.571,1.421,1.913,0.877,2.99
					c-0.544,1.078-1.818,1.49-2.843,0.917c-3.574-1.984-7.168-4.109-10.648-6.162c-7.81-4.604-15.883-9.365-24.13-12.871
					c-2.127-0.924-4.27-1.743-6.392-2.449c-12.07-4.055-20.835-1.146-32.969,2.882l-0.966,0.319c-1.211,0.403-2.569,0.79-3.98,1.197
					c-5.373,1.537-12.06,3.455-13.53,7.287c-0.701,1.83-0.206,4.27,1.48,7.245c2.196,3.879,6.476,5.792,11.844,7.886
					c0.534,0.211,1.073,0.417,1.593,0.629c1.089,0.428,1.638,1.706,1.226,2.847C169.589,514.603,168.79,515.148,167.941,515.148"/>
			</g>
			<g id="__id28_sayas0pug">
				<path fill="#737373" d="M335.195,502.896c-0.211,0-0.426-0.031-0.637-0.104c-12.163-4.073-25.586-7.229-39.892-9.385
					c-4.466-0.671-8.985-0.778-13.358-0.888c-7.761-0.19-15.78-0.392-23.659-3.729c-2.813-1.191-5.437-2.506-7.976-3.774
					c-7.035-3.522-13.1-6.56-21.109-6.368c-8.761,0.205-11.188,1.722-14.477,6.476c-0.687,0.986-2,1.202-2.937,0.486
					c-0.937-0.718-1.147-2.104-0.461-3.09c4.349-6.281,8.172-8.065,17.78-8.292c8.996-0.222,15.806,3.187,23.012,6.791
					c2.48,1.243,5.045,2.527,7.741,3.672c7.167,3.032,14.462,3.213,22.183,3.409c4.496,0.107,9.144,0.223,13.859,0.934
					c14.535,2.187,28.184,5.399,40.566,9.541c1.109,0.37,1.717,1.618,1.369,2.779C336.911,502.297,336.088,502.896,335.195,502.896"
					/>
			</g>
			<g id="__id29_sayas0pug">
				<path fill="#737373" d="M389.131,607.934c-0.285,0-0.573-0.058-0.848-0.187c-5.452-2.521-10.564-6.085-15.512-9.53
					c-2.494-1.743-4.854-3.388-7.26-4.915c-9.952-6.296-20.443-8.086-31.551-9.973c-9.32-1.588-18.963-3.233-28.199-7.782
					c-8.163-4.007-16.496-8.746-24.556-13.325c-16.83-9.566-34.233-19.463-52.151-24.104c-14.144-3.672-29.424-6.838-45.415-9.407
					c-2.172-0.356-3.971-0.753-5.496-1.213c-7.991-2.304-11.555-6.466-12.295-14.346c-0.059-0.624-0.104-1.284-0.132-1.975
					c-0.055-1.222,0.843-2.255,2.005-2.312c1.176-0.056,2.142,0.888,2.191,2.11c0.029,0.604,0.068,1.187,0.117,1.737
					c0.495,5.238,2.113,8.468,9.241,10.53c1.382,0.413,3.015,0.769,5.01,1.094c16.109,2.589,31.513,5.781,45.778,9.489
					c18.438,4.775,36.086,14.806,53.146,24.506c8.006,4.549,16.28,9.252,24.335,13.212c8.707,4.286,18.056,5.88,27.091,7.416
					c11.015,1.877,22.403,3.815,33.052,10.557c2.48,1.572,4.985,3.321,7.412,5.012c4.799,3.343,9.761,6.797,14.879,9.17
					c1.063,0.495,1.549,1.8,1.078,2.914C390.705,607.443,389.936,607.934,389.131,607.934"/>
			</g>
			<g>
				<defs>
					<rect id="SVGID_1_" x="657.523" y="635.389" width="119.227" height="72.652"/>
				</defs>
				<clipPath id="SVGID_2_">
					<use xlink:href="#SVGID_1_"  overflow="visible"/>
				</clipPath>
				<g id="__id30_sayas0pug" clip-path="url(#SVGID_2_)">
					<path fill="#737373" d="M659.756,708.041c-1.123,0-2.055-0.938-2.104-2.124c-0.045-1.223,0.857-2.249,2.02-2.301
						c22.969-0.959,49.504-13.382,54.592-15.862c26.063-12.712,44.332-32.824,58.775-50.823c0.75-0.928,2.072-1.046,2.961-0.263
						c0.887,0.79,1,2.181,0.25,3.115c-14.736,18.369-33.416,38.909-60.221,51.982c-5.213,2.543-32.424,15.28-56.191,16.271
						C659.809,708.041,659.785,708.041,659.756,708.041"/>
				</g>
			</g>
			<g>
				<defs>
					<rect id="SVGID_3_" x="619.875" y="583.901" width="42.67" height="124.14"/>
				</defs>
				<clipPath id="SVGID_4_">
					<use xlink:href="#SVGID_3_"  overflow="visible"/>
				</clipPath>
				<g id="__id31_sayas0pug" clip-path="url(#SVGID_4_)">
					<path fill="#737373" d="M659.75,708.041c-0.961,0-1.828-0.702-2.049-1.732c-5.074-23.877-11.756-48.001-19.863-71.697
						c-0.83-2.419-1.648-4.833-2.467-7.235c-4.662-13.76-9.064-26.756-15.031-39.184c-0.525-1.089-0.107-2.419,0.928-2.971
						c1.039-0.547,2.299-0.113,2.822,0.974c6.084,12.677,10.535,25.802,15.242,39.695c0.814,2.397,1.633,4.806,2.461,7.224
						c8.168,23.867,14.902,48.173,20.012,72.23c0.254,1.19-0.455,2.371-1.594,2.64C660.059,708.021,659.902,708.041,659.75,708.041"
						/>
				</g>
			</g>
			<g id="__id32_sayas0pug">
				<path fill="#737373" d="M415.451,610.444c-2.867,0-5.74-0.107-8.623-0.346c-6.285-0.525-12.578-1.402-17.986-2.182
					c-1.146-0.17-1.951-1.283-1.795-2.49c0.158-1.212,1.212-2.067,2.368-1.893c5.349,0.769,11.569,1.641,17.747,2.15
					c14.722,1.228,29.479-1.166,43.748-3.481c6.588-1.067,13.398-2.171,20.184-2.924c16.074-1.784,32.439-5.343,48.264-8.787
					c23.236-5.054,47.277-10.222,71.244-10.135c12.889,0.068,23.145,1.575,32.273,4.741c1.098,0.381,1.701,1.629,1.338,2.789
					c-0.367,1.16-1.559,1.79-2.656,1.407c-8.697-3.016-18.541-4.449-30.979-4.517c-23.566-0.108-47.346,5.038-70.367,10.045
					c-15.928,3.467-32.396,7.051-48.676,8.854c-6.684,0.738-13.447,1.837-19.982,2.899
					C439.791,608.485,427.707,610.444,415.451,610.444"/>
			</g>
			<g id="__id33_sayas0pug">
				<path fill="#737373" d="M692.586,477.688c-0.354,0-0.686-0.094-0.98-0.254c-0.137-0.077-0.273-0.17-0.396-0.277
					c-0.078-0.048-0.113-0.078-0.182-0.135c-19.6-15.554-40.93-28.564-63.402-38.678c-6.736-3.012-14.746-6.333-23.1-8.076
					c-10.535-2.191-21.301-1.954-34.223-0.923c-36.156,2.888-64.168,9.639-88.16,21.241c-2.279,1.104-4.27,2.11-6.088,3.074
					c-4.682,2.46-9.404,5.126-13.973,7.709c-3.043,1.718-6.094,3.441-9.146,5.116c-1.029,0.563-2.299,0.145-2.84-0.938
					c-0.533-1.083-0.137-2.419,0.898-2.986c3.039-1.665,6.068-3.377,9.104-5.089c4.594-2.595,9.344-5.281,14.074-7.767
					c1.854-0.98,3.889-2.007,6.207-3.136c24.473-11.83,52.941-18.705,89.604-21.628c13.266-1.063,24.355-1.301,35.361,0.989
					c8.727,1.826,16.998,5.245,23.928,8.344c22.762,10.242,44.361,23.414,64.211,39.158c0.119,0.082,0.23,0.164,0.34,0.257
					c0.523,0.408,0.867,1.059,0.867,1.785C694.689,476.697,693.748,477.688,692.586,477.688"/>
			</g>
			<g id="__id34_sayas0pug">
				<path fill="#737373" d="M693.037,477.099c-0.225,0-0.445-0.112-0.584-0.324c-0.234-0.361-0.479-0.722-0.73-1.088
					c-0.117-0.17-0.24-0.361-0.342-0.536c-0.211-0.341-0.113-0.8,0.211-1.016c0.328-0.222,0.764-0.12,0.969,0.227
					c0.09,0.149,0.191,0.313,0.301,0.464c0.254,0.372,0.51,0.748,0.754,1.125c0.217,0.334,0.133,0.793-0.186,1.021
					C693.307,477.058,693.17,477.099,693.037,477.099"/>
			</g>
		</g>
	</g>
	<g>
		<path fill="#AA8094" d="M461.097,283.454c15.086,0.539,28.934-4.902,39.178-14.183c10.243-9.198,16.801-22.32,17.301-36.979
			c0.494-14.493-5.15-28.135-14.744-37.958c-9.586-9.99-23.029-16.407-38.115-16.946c-14.917-0.533-28.934,4.902-39.01,14.189
			c-10.243,9.198-16.801,22.321-17.295,36.814c-0.501,14.658,5.147,28.217,14.738,38.124
			C432.563,276.58,446.095,282.917,461.097,283.454L461.097,283.454z M461.263,278.596c-27.376-0.979-48.934-23.27-48.021-50.033
			c0.908-26.598,23.853-47.462,51.313-46.481c27.46,0.981,48.93,23.35,48.019,50.031
			C511.576,258.874,488.638,279.574,461.263,278.596L461.263,278.596z M420.461,230.882c3.196,15.78,18.121,30.99,41.854,31.755
			l-0.32,9.388C439.344,271.875,420.366,253.553,420.461,230.882L420.461,230.882z M432.929,198.76
			c17.945-16.096,45.998-15.093,62.717,2.242c16.63,17.497,15.699,44.753-2.078,60.938c-0.701,0.634-1.401,1.269-2.182,1.737
			c15.918-16.334,16.124-42.298,0.145-58.946c-16.148-16.655-42.738-18.265-60.537-3.978
			C431.612,200.033,432.228,199.395,432.929,198.76L432.929,198.76z M359.02,288.215c10.086,0.361,19.29-3.269,26.034-9.458
			c6.825-6.022,11.196-14.771,11.53-24.57c0.335-9.799-3.433-18.756-9.827-25.333c-6.223-6.653-15.241-10.933-25.326-11.294
			c-10.086-0.36-19.29,3.269-26.12,9.456l0,0c-6.654,6.028-11.11,14.773-11.444,24.573c-0.334,9.799,3.433,18.756,9.741,25.331
			C340.003,283.496,348.934,287.855,359.02,288.215L359.02,288.215z M359.13,285.003c-18.223-0.651-32.563-15.593-31.959-33.297
			c0.604-17.706,15.929-31.586,34.15-30.935c18.222,0.651,32.562,15.592,31.957,33.297
			C392.674,271.773,377.351,285.655,359.13,285.003L359.13,285.003z M331.876,253.111c2.182,10.632,12.104,20.797,28.042,21.202
			l-0.214,6.258C344.436,280.438,331.781,268.278,331.876,253.111L331.876,253.111z M340.24,231.808
			c11.908-10.787,30.554-10.121,41.698,1.49c11.144,11.612,10.521,29.893-1.386,40.599c-0.438,0.396-0.788,0.713-1.396,1.104
			c10.552-10.835,10.807-28.224-0.019-39.246c-10.649-11.182-28.349-12.227-40.297-2.76
			C339.276,232.682,339.72,232.119,340.24,231.808L340.24,231.808z M412.129,432.751c20.089,0.718,38.668-6.616,52.152-18.831
			c13.66-12.374,22.313-29.709,22.979-49.226c0.666-19.516-6.784-37.426-19.568-50.746c-12.698-13.316-30.652-21.79-50.741-22.508
			c-20.086-0.717-38.49,6.457-52.15,18.831c-13.575,12.378-22.313,29.709-22.979,49.226c-0.666,19.518,6.954,37.434,19.567,50.746
			C374.179,423.396,391.958,432.03,412.129,432.751L412.129,432.751z M412.349,426.328c-36.528-1.306-65.209-31.188-63.998-66.681
			c1.211-35.492,31.858-63.254,68.388-61.949c36.53,1.306,65.21,31.188,63.999,66.68
			C479.526,399.871,448.879,427.633,412.349,426.328L412.349,426.328z M357.926,362.545c4.281,21.261,24.125,41.511,55.916,42.399
			l-0.427,12.517C383.133,417.121,357.827,392.801,357.926,362.545L357.926,362.545z M374.653,319.94
			c23.817-21.576,61.279-20.237,83.483,2.983c22.295,23.058,21.047,59.621-2.768,81.114c-0.794,0.879-1.751,1.586-2.712,2.377
			c21.108-21.754,21.525-56.368,0.139-78.652c-21.473-22.286-56.96-24.296-80.771-5.36
			C372.817,321.523,373.696,320.647,374.653,319.94L374.653,319.94z"/>
	</g>
	<text transform="matrix(1 0 0 1 235.8862 714.6719)"><tspan x="0" y="0" fill="#FFFFFF" font-family="'Oxygen-Bold'" font-size="100">O</tspan><tspan x="79.395" y="0" fill="#AA8094" font-family="'Oxygen-Bold'" font-size="100">xy.te</tspan><tspan x="309.229" y="0" fill="#FFFFFF" font-family="'Oxygen-Bold'" font-size="100">g</tspan></text>
</g>
<g>
	<g>
		<path d="M634.938,590.961c3.225,0,3.225-5,0-5S631.714,590.961,634.938,590.961L634.938,590.961z"/>
	</g>
</g>
<g>
	<g>
		<path d="M627.438,526.465c3.225,0,3.225-5,0-5S624.214,526.465,627.438,526.465L627.438,526.465z"/>
	</g>
</g>
<g>
	<g>
		<path d="M655.938,560.963c3.225,0,3.225-5,0-5S652.713,560.963,655.938,560.963L655.938,560.963z"/>
	</g>
</g>
<g>
	<g>
		<path d="M655.938,560.963c3.225,0,3.225-5,0-5S652.713,560.963,655.938,560.963L655.938,560.963z"/>
	</g>
</g>
<g>
	<g>
		<path d="M655.938,560.963c3.225,0,3.225-5,0-5S652.713,560.963,655.938,560.963L655.938,560.963z"/>
	</g>
</g>
<g>
	<g>
		<path d="M601.939,614.96c3.225,0,3.225-5,0-5S598.715,614.96,601.939,614.96L601.939,614.96z"/>
	</g>
</g>
<g>
	<g>
		<path d="M601.939,614.96c3.225,0,3.225-5,0-5S598.715,614.96,601.939,614.96L601.939,614.96z"/>
	</g>
</g>
<g>
	<g>
		<path d="M601.939,614.96c3.225,0,3.225-5,0-5S598.715,614.96,601.939,614.96L601.939,614.96z"/>
	</g>
</g>
</svg>
